<svg width="800" height="1110" viewBox="0 0 800 1110" fill="none" xmlns="http://www.w3.org/2000/svg">
<rect width="800" height="1110" fill="#65A30D"/>
<circle cx="400" cy="555" r="275" fill="url(#paint0_linear_197_1974)"/>
<g opacity="0.5">
<circle cx="399.921" cy="555" r="192.809" fill="#65A30D"/>
<path d="M437.911 510.417C461.116 529.347 472.719 538.812 472.719 555.001C472.719 571.189 461.116 580.654 437.91 599.584C431.505 604.81 425.151 609.73 419.312 613.83C414.19 617.426 408.39 621.147 402.384 624.799C379.233 638.877 367.657 645.916 357.275 638.123C346.893 630.33 345.95 614.015 344.063 581.385C343.529 572.157 343.191 563.111 343.191 555.001C343.191 546.891 343.529 537.845 344.063 528.617C345.95 495.987 346.893 479.672 357.275 471.879C367.657 464.085 379.233 471.124 402.384 485.202C408.39 488.855 414.19 492.575 419.312 496.172C425.151 500.272 431.505 505.192 437.911 510.417Z" fill="white"/>
</g>
<defs>
<linearGradient id="paint0_linear_197_1974" x1="400" y1="261" x2="400" y2="774" gradientUnits="userSpaceOnUse">
<stop stop-color="#8FDE1F"/>
<stop offset="1" stop-color="white" stop-opacity="0"/>
</linearGradient>
</defs>
</svg>
